PathFileType	4	(X/Y/Z)	/Users/niels/Desktop/University/Third Semester/Perception and Action/Exam/Gymnastics Motion Tracking/Code for Gym Tracking/Analyzed Data/Webcam_Backflip/id7_5_baseline_Sports2D/id7_5_baseline_Sports2D_px_person00.trc
DataRate	CameraRate	NumFrames	NumMarkers	Units	OrigDataRate	OrigDataStartFrame	OrigNumFrames
29.8125	29.8125	11	22	m	29.8125	60	160
Frame#	Time	Hip			RHip			RKnee			RAnkle			RBigToe			RSmallToe			RHeel			LHip			LKnee			LAnkle			LBigToe			LSmallToe			LHeel			Neck			Head			Nose			RShoulder			RElbow			RWrist			LShoulder			LElbow			LWrist		
		X1	Y1	Z1	X2	Y2	Z2	X3	Y3	Z3	X4	Y4	Z4	X5	Y5	Z5	X6	Y6	Z6	X7	Y7	Z7	X8	Y8	Z8	X9	Y9	Z9	X10	Y10	Z10	X11	Y11	Z11	X12	Y12	Z12	X13	Y13	Z13	X14	Y14	Z14	X15	Y15	Z15	X16	Y16	Z16	X17	Y17	Z17	X18	Y18	Z18	X19	Y19	Z19	X20	Y20	Z20	X21	Y21	Z21	X22	Y22	Z22
60	2.012578616352201	0.6852954808082912	-0.5635650541540264	0.0	0.6786847188812849	-0.5612371813573293	0.0	0.655807127034077	-0.6823720746521749	0.0	0.602972680361898	-0.7806025719220865	0.0	0.6110245597619358	-0.8090744977207603	0.0	0.60051736772458	-0.8105205066994514	0.0	0.5908891427477194	-0.7923126517239621	0.0	0.6948507916143969	-0.5571133284275861	0.0	0.7658266254835213	-0.6302462990130692	0.0	0.7961858165567769	-0.7326564693729222	0.0	0.8366279788781068	-0.745617120316651	0.0	0.8335099425484706	-0.7419561174199342	0.0	0.7901274846683257	-0.7516843799372795	0.0	0.6982407309198926	-0.40636068460808095	0.0	0.7185131545882797	-0.3361723244642106	0.0	0.7253939706123815	-0.3691470883566438	0.0	0.7147551170556983	-0.41269075285498424	0.0	0.7437072271711666	-0.3518439991071393	0.0	0.7469189527567467	-0.28644456253998873	0.0	0.6810064980211875	-0.4120014732192283	0.0	0.658705393204359	-0.3959033180154461	0.0	0.6769554787347926	-0.3413458761147246	0.0
61	2.0461215932914043	0.6760730066258015	-0.5873620306334214	0.0	0.6683136689419916	-0.5851133771367949	0.0	0.6486592994762235	-0.7058501333173558	0.0	0.5959281427246642	-0.8014833478276131	0.0	0.6025104477757447	-0.8245561544049326	0.0	0.5925225294143083	-0.8266892287735945	0.0	0.5847022749543097	-0.811672618360689	0.0	0.6862719731100364	-0.5813589416207873	0.0	0.7570955905793432	-0.651974236769174	0.0	0.7847679237126299	-0.755063879359589	0.0	0.8240760461263101	-0.7666129829010451	0.0	0.8210252444306252	-0.7631420678582129	0.0	0.7791025015545446	-0.7738529464726788	0.0	0.688898749373794	-0.4296948854637019	0.0	0.7065043017778386	-0.35885658214778077	0.0	0.7155845519082155	-0.3933607253308452	0.0	0.7033507349122121	-0.4365789513114658	0.0	0.7334328057032006	-0.37409024106682426	0.0	0.7302517157419576	-0.30779760988208243	0.0	0.6727427438493706	-0.43559114992057724	0.0	0.6566543068843798	-0.40989981892982386	0.0	0.675935248305195	-0.3563388329232061	0.0
62	2.079664570230608	0.6679551146163045	-0.60930637807106	0.0	0.6590668722760255	-0.607323932565498	0.0	0.6432072351307816	-0.7271942661711535	0.0	0.5908047325403833	-0.819886919462732	0.0	0.5968568425732078	-0.8383012479620328	0.0	0.587205877706581	-0.8409880519555575	0.0	0.5806976852271838	-0.8282122312786547	0.0	0.6788832689167078	-0.6041267412739909	0.0	0.7499129401413805	-0.6719887943101943	0.0	0.7759598681673541	-0.7751456792805959	0.0	0.815060433858882	-0.7842676789922404	0.0	0.8119344557950136	-0.7809578130547773	0.0	0.7708686587209673	-0.7937613357383407	0.0	0.6808518327160068	-0.45195722448593867	0.0	0.6965536494936883	-0.3799983317569411	0.0	0.7074930221753053	-0.41677153634172465	0.0	0.6919814239599101	-0.460082648654526	0.0	0.723896535813408	-0.39630802117991093	0.0	0.7158261193838911	-0.3289980311837318	0.0	0.6658802941550158	-0.45854610549253155	0.0	0.6580408883725917	-0.4210832953238188	0.0	0.6767742062820202	-0.3735876559813252	0.0
63	2.113207547169811	0.6614835127197211	-0.6272470993661093	0.0	0.6517036433660139	-0.6256904173332485	0.0	0.639252492597978	-0.7445117502194702	0.0	0.5874333716789323	-0.8343577121944393	0.0	0.5940281307160125	-0.8491170211735424	0.0	0.5844594237760072	-0.8521320673803668	0.0	0.5783893995210971	-0.8409496192959517	0.0	0.6729599654139615	-0.6230677467723791	0.0	0.7449356330554016	-0.6879930542447599	0.0	0.7701580718173486	-0.7907405360304373	0.0	0.8097751843505282	-0.7972364834271923	0.0	0.8064824070796835	-0.7939971988996375	0.0	0.7656444610118105	-0.8092650135456007	0.0	0.6741660674337933	-0.47081174201390114	0.0	0.688530602186779	-0.3974065121242666	0.0	0.7008803340729092	-0.4365849332804608	0.0	0.6815514661047162	-0.48057517904520597	0.0	0.71530669696674	-0.4158356811736015	0.0	0.7044301210815369	-0.34752891945705155	0.0	0.660522818620081	-0.47850176458849286	0.0	0.6619420505088764	-0.4295793313828998	0.0	0.6787118247631473	-0.39019005893497366	0.0
64	2.1467505241090143	0.6570956379402171	-0.63941419997906	0.0	0.6468084239321855	-0.6383207797193164	0.0	0.6366431715020036	-0.7561607535683674	0.0	0.5854067396276532	-0.8437766824247398	0.0	0.5931145726012884	-0.8561523535194728	0.0	0.5835379074654723	-0.8591440448746415	0.0	0.5770763371392915	-0.8492009914235022	0.0	0.6688091264496595	-0.6361496310441087	0.0	0.7425765689167241	-0.6979998111110568	0.0	0.7670035178241488	-0.800263245342367	0.0	0.8074824667066665	-0.8045962962493343	0.0	0.8039958512176791	-0.8013762356537445	0.0	0.7628247928626378	-0.8187387108943985	0.0	0.6688968498262307	-0.48408432631574677	0.0	0.6823301749186979	-0.40919294296387065	0.0	0.6955418100092572	-0.450377427687425	0.0	0.6729528588387524	-0.49551177759038	0.0	0.707902488005793	-0.4302119097722061	0.0	0.6966988465848954	-0.36111510498689703	0.0	0.656743112020753	-0.49312898395431876	0.0	0.6670056702940603	-0.4360237249966319	0.0	0.6806098463078872	-0.40187734534985003	0.0
65	2.180293501048218	0.6551330915209711	-0.6446779544745584	0.0	0.6447327118212985	-0.6439322691440432	0.0	0.6353130908716158	-0.7609287069533752	0.0	0.5842521919585061	-0.8473723630880081	0.0	0.5928468504715385	-0.8588545232191634	0.0	0.5834628740778177	-0.8614597995956482	0.0	0.5761461614819957	-0.8524838243995849	0.0	0.6667937816571458	-0.6419895457079872	0.0	0.7428081196764704	-0.7009929911359467	0.0	0.7657941523360057	-0.8031025185327829	0.0	0.8071240343503939	-0.806096253319427	0.0	0.8034594861987113	-0.8029395349282302	0.0	0.7615287717925223	-0.8215179030654155	0.0	0.6650601143002075	-0.49027852460088417	0.0	0.6778837216494743	-0.4141715175605341	0.0	0.6914101818349818	-0.4566246875140954	0.0	0.6668243786539393	-0.5030805231352099	0.0	0.7019093107177606	-0.43785055326400346	0.0	0.6927837102500124	-0.36834594670644766	0.0	0.6544064035357825	-0.5006935485620184	0.0	0.6714351091333369	-0.4412716156130426	0.0	0.6812986159996978	-0.4069309341866077	0.0
66	2.213836477987421	0.6558036369801636	-0.6425635595491828	0.0	0.6455719039732161	-0.6419809832079211	0.0	0.6353469315820157	-0.7582486513855333	0.0	0.5837068139653626	-0.8447655953177705	0.0	0.592601373953785	-0.8568221338070002	0.0	0.5837214713563381	-0.8588822199045282	0.0	0.5753505669519208	-0.8505102523921483	0.0	0.66721509209434	-0.6400199854143643	0.0	0.7451872240349513	-0.6971995577289813	0.0	0.7658698711560399	-0.7996196596354879	0.0	0.8078082964818913	-0.8023881369635107	0.0	0.8040159066209065	-0.7993279094504215	0.0	0.7610676386463957	-0.8179315231300375	0.0	0.6626542888954406	-0.48891325756231413	0.0	0.6750899059809725	-0.4121027267526872	0.0	0.6886014055607953	-0.4548745613913342	0.0	0.6634158630033998	-0.5026316026336772	0.0	0.6974205860211783	-0.4384338566368775	0.0	0.69225749645893	-0.3691373917658911	0.0	0.6531248576353583	-0.5005250031484378	0.0	0.6729214242388193	-0.4465265617312607	0.0	0.6798861568066141	-0.40905323832362334	0.0
67	2.2473794549266244	0.6591041617309872	-0.6333028912029356	0.0	0.6491806024845992	-0.6327385985323557	0.0	0.6370247858109543	-0.7484335331285632	0.0	0.5838198121305447	-0.8360436885480877	0.0	0.5928743691738283	-0.8498328279729502	0.0	0.5846052992710249	-0.8514830983172723	0.0	0.5748470818114056	-0.8432014611648918	0.0	0.670186302803756	-0.6305702943058139	0.0	0.7490352657448468	-0.6878734267654956	0.0	0.7667585444907155	-0.7909566080875717	0.0	0.8090092697116779	-0.7947915393553349	0.0	0.8051453901089664	-0.791739659929893	0.0	0.7610991362731786	-0.8091161186939797	0.0	0.66174607573397	-0.4805381674913637	0.0	0.6737950678099264	-0.40372370745511055	0.0	0.6873805192857244	-0.44571627672536657	0.0	0.6625893147406259	-0.49470267484766756	0.0	0.6943760835810797	-0.4329057043491958	0.0	0.6942764377603079	-0.36485128846179604	0.0	0.6525242002598988	-0.49312547823770014	0.0	0.6698074837168586	-0.45306632286926035	0.0	0.6759113575696389	-0.41391534015043885	0.0
68	2.280922431865828	0.6647856728838888	-0.617973950685687	0.0	0.6552327139652937	-0.6173413520183658	0.0	0.6407792060877047	-0.7327536792371325	0.0	0.5849059109133686	-0.8218928233130274	0.0	0.5949422216178236	-0.8381910653451149	0.0	0.5870225586278404	-0.8397251145869608	0.0	0.5750553866266831	-0.8308298566861791	0.0	0.675578574077112	-0.6148559396919681	0.0	0.7535957532437033	-0.6748287541471938	0.0	0.7681790752295178	-0.7788109895217944	0.0	0.8105200007550987	-0.7848026383724434	0.0	0.8065966691826144	-0.7815941724291147	0.0	0.7615708992015546	-0.7968093933583772	0.0	0.6624572793534025	-0.4665476023305767	0.0	0.6738558214721572	-0.39050725367077216	0.0	0.688010004036932	-0.4306626432399865	0.0	0.6639046484262414	-0.4807593912660022	0.0	0.6926355428540826	-0.42322248443366367	0.0	0.6978316380509029	-0.3580586856300569	0.0	0.6525233974798129	-0.47987770125093127	0.0	0.6624130978632157	-0.4608909463424338	0.0	0.6696618451890857	-0.42345575735749874	0.0
69	2.314465408805031	0.6723520446961996	-0.5984769351072069	0.0	0.663247121359958	-0.5976600644498768	0.0	0.6470125129993124	-0.7132428557728981	0.0	0.5874557501808749	-0.803730413521505	0.0	0.6000527203198963	-0.8230789095650157	0.0	0.5919374605205965	-0.8247664283032539	0.0	0.5765192789509526	-0.814287812224006	0.0	0.6829785576910253	-0.594834353029115	0.0	0.7581347004051969	-0.6600021928884242	0.0	0.7699386516326175	-0.7650744850582617	0.0	0.8122706328944983	-0.773793466344531	0.0	0.8082451079241314	-0.7702967739317073	0.0	0.7625386942694636	-0.7829507762892981	0.0	0.6648584290203122	-0.4489054560882941	0.0	0.6752289506652829	-0.37425960513059686	0.0	0.6906013654067812	-0.4119005582771556	0.0	0.6667994275219261	-0.4628552432162515	0.0	0.6919849617127167	-0.41202148611313594	0.0	0.7018997338258067	-0.35198415176996317	0.0	0.6533806969274218	-0.4626315138805642	0.0	0.6530592846128899	-0.46741145523151306	0.0	0.6625405869702561	-0.4340417176428416	0.0
70	2.3480083857442344	0.6811139746270196	-0.5771655159044987	0.0	0.6725661256896363	-0.5759643523038043	0.0	0.6558304790099331	-0.6922318845462364	0.0	0.5920357536447995	-0.7836098105179247	0.0	0.608662052261015	-0.8064034701172307	0.0	0.5997994020302558	-0.808412326878142	0.0	0.5798750444476655	-0.7952055183454781	0.0	0.6916991760019106	-0.5728723009194633	0.0	0.7620723161196042	-0.6451387670406302	0.0	0.7718085317572659	-0.751391680357993	0.0	0.8141007131264792	-0.7628844011250236	0.0	0.8099460920905583	-0.7590495797848773	0.0	0.763961651623548	-0.7691592184047946	0.0	0.6689348962669219	-0.4297347143700643	0.0	0.6779991592753627	-0.3567276938372841	0.0	0.6951252413993905	-0.3917988285351582	0.0	0.6708741603466978	-0.44322450607086405	0.0	0.6920669351935587	-0.4021737568572021	0.0	0.7054521245824013	-0.3496577122193725	0.0	0.6556093568200825	-0.44338324775530275	0.0	0.6448364727510685	-0.4687545140208942	0.0	0.6566274878576452	-0.4399945822191815	0.0
